<svg xmlns="http://www.w3.org/2000/svg" width="1080" height="1080" viewBox="0 0 810 810"><defs><clipPath id="d"><path d="M72 77h680v687H72Zm0 0"/></clipPath><clipPath id="e"><use href="#a"/></clipPath><clipPath id="f"><path d="m-3.152 336.473 177.484 432.765c23.73 57.871 89.883 85.543 147.75 61.809L751.344 655c57.87-23.73 85.543-89.883 61.808-147.75L635.672 74.484c-23.735-57.87-89.887-85.543-147.754-61.808L58.656 188.723C.79 212.453-26.887 278.605-3.152 336.473m0 0"/></clipPath><clipPath id="g"><use href="#a"/></clipPath><clipPath id="h"><use href="#a"/></clipPath><clipPath id="i"><path d="M585.855 135.781a334 334 0 0 0-12.085-6.594c-19.293-13.449-40.172-24.597-62.512-32.78-73.531-26.966-157.695-23.52-230.598 3.75-69.824 26.124-129.187 75.753-165.984 140.687-16.781 29.61-28.414 61.922-34.27 95.449-.804 4.598 6.352 5.586 7.16 1.004 12.008-67.965 48.973-130.422 101.536-174.961 59.347-50.293 137.265-76.719 214.757-76.703 34.594.008 68.239 5.637 99.832 16.715-38.382-9.973-78.507-13.258-117.976-9.38-69.473 6.821-134.707 37.173-186.64 83.5-16.954 15.13-32.403 31.825-46.223 49.743-17.141 20.289-32.102 42.492-44.477 66.355-30.316 58.442-42.566 123.5-32.957 187.668 2.367 30.454 8.836 60.727 19.777 89.98 24.262 64.848 70.774 117.731 130.985 151.532 57.078 32.035 124.312 46.395 189.515 40.688 3.688-.325 7.383-.739 11.067-1.18q3.455-.258 6.863-.586c72.332-6.742 142.996-34.106 198.691-81.16 52.04-43.965 89.317-104.278 107.352-169.84 19.059-69.324 14.64-142.77-12.152-209.477-27.543-68.605-77.446-127.543-141.66-164.41m-96.812-28.02a322.6 322.6 0 0 1 87.531 32.72 287 287 0 0 1 28.653 23.726c51.789 48.863 87.433 115.078 103.023 184.328 15.988 70.992 9.395 144.48-25.398 208.961-18.36 34.035-42.489 65.156-68.399 93.754-27.879 30.785-59.824 57.86-97.726 75.441-29.485 13.684-61.098 22.172-93.293 25.73-32.387 2.18-65.047.22-96.91-5.933-37.083-7.164-73.868-19.695-104.794-41.855-31.507-22.574-57.144-53.117-78.828-84.996-28.23-41.52-49.27-88.5-57.691-137.633-6.547-79.027 14.805-161.363 58.512-227.164a379 379 0 0 1 11.582-16.45 366 366 0 0 1 25.488-28.68c24.918-25.214 53.71-46.925 85.059-63.495 2.843-1.508 2.957-4.824 1.593-6.883 8.774-4.844 17.778-9.312 27-13.316 61.078-26.567 129.618-32.258 194.598-18.254M114.895 592.118a430 430 0 0 0 21.304 34.403c6.95 10.125 14.305 20.128 22.121 29.796a250 250 0 0 1-3.664-4.117c-16.105-18.5-29.3-38.715-39.761-60.082m575.789 9.02c-37.016 57.547-91.528 101.172-155.098 126.234-1.438.559-2.89 1.11-4.332 1.656 36.055-19.082 66.465-46.492 93.305-77.02 25.902-29.452 49.984-61.194 68.164-96.062 17.515-33.582 28.203-70.16 31.312-107.914 5.969-72.148-13.484-145.062-49.672-207.308-14.496-24.942-31.883-48.493-51.847-69.485a311 311 0 0 1 42.23 41.176c47.078 55.606 75.602 126.496 78.3 199.445 2.466 66.532-16.398 133.34-52.362 189.278m0 0"/></clipPath><clipPath id="l"><path d="M0 0h455v132H0z"/></clipPath><clipPath id="n"><path d="M0 0h488v156H0z"/></clipPath><path id="a" d="M-46.125 231.695 592.969-30.406l263.523 642.558-639.094 262.102Zm0 0"/><path id="c" fill="#000" d="M-81-81h972v972H-81z"/><mask id="k"><g filter="url(#b)"><use fill-opacity=".99" href="#c"/></g></mask><mask id="m"><g filter="url(#b)"><use fill-opacity=".92" href="#c"/></g></mask><linearGradient id="j" x1="-130.59" x2="649.929" y1="34.754" y2="485.387" gradientTransform="rotate(-22.3 549.967 251.81)scale(1.37528)" gradientUnits="userSpaceOnUse"><stop offset="0" stop-color="#3b5704"/><stop offset=".125" stop-color="#3b5704"/><stop offset=".188" stop-color="#3b5704"/><stop offset=".219" stop-color="#3b5704"/><stop offset=".227" stop-color="#3b5704"/><stop offset=".23" stop-color="#3d5a05"/><stop offset=".234" stop-color="#3f5d07"/><stop offset=".238" stop-color="#436109"/><stop offset=".242" stop-color="#46650b"/><stop offset=".246" stop-color="#49690d"/><stop offset=".25" stop-color="#4d6d0f"/><stop offset=".254" stop-color="#507111"/><stop offset=".258" stop-color="#537513"/><stop offset=".262" stop-color="#577a15"/><stop offset=".266" stop-color="#5a7e17"/><stop offset=".27" stop-color="#5d8219"/><stop offset=".273" stop-color="#60861b"/><stop offset=".277" stop-color="#648a1d"/><stop offset=".281" stop-color="#678e1f"/><stop offset=".285" stop-color="#6a9222"/><stop offset=".289" stop-color="#6e9724"/><stop offset=".293" stop-color="#719b26"/><stop offset=".297" stop-color="#749f28"/><stop offset=".301" stop-color="#78a32a"/><stop offset=".305" stop-color="#7ba72c"/><stop offset=".309" stop-color="#7eab2e"/><stop offset=".313" stop-color="#81af30"/><stop offset=".316" stop-color="#85b432"/><stop offset=".32" stop-color="#88b834"/><stop offset=".324" stop-color="#8bbc36"/><stop offset=".328" stop-color="#8fc038"/><stop offset=".332" stop-color="#92c43a"/><stop offset=".336" stop-color="#95c83c"/><stop offset=".34" stop-color="#99cc3e"/><stop offset=".344" stop-color="#9cd140"/><stop offset=".348" stop-color="#9ace3f"/><stop offset=".352" stop-color="#98cc3e"/><stop offset=".355" stop-color="#95c83d"/><stop offset=".359" stop-color="#92c43b"/><stop offset=".363" stop-color="#8fc039"/><stop offset=".367" stop-color="#8cbc37"/><stop offset=".371" stop-color="#89b836"/><stop offset=".375" stop-color="#86b434"/><stop offset=".379" stop-color="#83b032"/><stop offset=".383" stop-color="#80ac30"/><stop offset=".387" stop-color="#7ca82f"/><stop offset=".391" stop-color="#79a52d"/><stop offset=".395" stop-color="#76a12b"/><stop offset=".398" stop-color="#739d2a"/><stop offset=".402" stop-color="#709928"/><stop offset=".406" stop-color="#6d9526"/><stop offset=".41" stop-color="#6a9124"/><stop offset=".414" stop-color="#678d23"/><stop offset=".418" stop-color="#648921"/><stop offset=".422" stop-color="#61851f"/><stop offset=".426" stop-color="#5e811e"/><stop offset=".43" stop-color="#5b7d1c"/><stop offset=".434" stop-color="#58791a"/><stop offset=".438" stop-color="#557518"/><stop offset=".441" stop-color="#517217"/><stop offset=".445" stop-color="#4e6e15"/><stop offset=".449" stop-color="#4b6a13"/><stop offset=".453" stop-color="#486611"/><stop offset=".457" stop-color="#456210"/><stop offset=".461" stop-color="#425e0e"/><stop offset=".465" stop-color="#3f5a0c"/><stop offset=".469" stop-color="#3c560b"/><stop offset=".473" stop-color="#395209"/><stop offset=".477" stop-color="#364e07"/><stop offset=".48" stop-color="#334a05"/><stop offset=".484" stop-color="#304604"/><stop offset=".488" stop-color="#2d4202"/><stop offset=".492" stop-color="#293f00"/><stop offset=".496" stop-color="#2b4101"/><stop offset=".5" stop-color="#2d4402"/><stop offset=".504" stop-color="#2f4702"/><stop offset=".508" stop-color="#324a03"/><stop offset=".512" stop-color="#344d04"/><stop offset=".516" stop-color="#365005"/><stop offset=".52" stop-color="#385306"/><stop offset=".523" stop-color="#3a5607"/><stop offset=".527" stop-color="#3d5908"/><stop offset=".531" stop-color="#3f5c08"/><stop offset=".535" stop-color="#415f09"/><stop offset=".539" stop-color="#43620a"/><stop offset=".543" stop-color="#46650b"/><stop offset=".547" stop-color="#48680c"/><stop offset=".551" stop-color="#4a6b0d"/><stop offset=".555" stop-color="#4c6e0e"/><stop offset=".559" stop-color="#4e710e"/><stop offset=".563" stop-color="#51740f"/><stop offset=".566" stop-color="#537710"/><stop offset=".57" stop-color="#557a11"/><stop offset=".574" stop-color="#577d12"/><stop offset=".578" stop-color="#598013"/><stop offset=".582" stop-color="#5c8314"/><stop offset=".586" stop-color="#5e8614"/><stop offset=".59" stop-color="#608915"/><stop offset=".594" stop-color="#628c16"/><stop offset=".598" stop-color="#658f17"/><stop offset=".602" stop-color="#679218"/><stop offset=".605" stop-color="#699519"/><stop offset=".609" stop-color="#6b981a"/><stop offset=".613" stop-color="#6d9b1a"/><stop offset=".617" stop-color="#709e1b"/><stop offset=".621" stop-color="#72a11c"/><stop offset=".625" stop-color="#74a41d"/><stop offset=".629" stop-color="#76a71e"/><stop offset=".633" stop-color="#78aa1f"/><stop offset=".637" stop-color="#7bad1f"/><stop offset=".641" stop-color="#7db020"/><stop offset=".645" stop-color="#7fb321"/><stop offset=".648" stop-color="#81b622"/><stop offset=".652" stop-color="#7fb421"/><stop offset=".656" stop-color="#7cb120"/><stop offset=".66" stop-color="#7aaf1f"/><stop offset=".664" stop-color="#78ad1e"/><stop offset=".668" stop-color="#76ab1d"/><stop offset=".672" stop-color="#74a91c"/><stop offset=".676" stop-color="#71a61b"/><stop offset=".68" stop-color="#6fa41a"/><stop offset=".684" stop-color="#6da219"/><stop offset=".688" stop-color="#6ba018"/><stop offset=".691" stop-color="#699d17"/><stop offset=".695" stop-color="#679b16"/><stop offset=".699" stop-color="#649915"/><stop offset=".703" stop-color="#629713"/><stop offset=".707" stop-color="#609512"/><stop offset=".711" stop-color="#5e9211"/><stop offset=".715" stop-color="#5c9010"/><stop offset=".719" stop-color="#5a8e0f"/><stop offset=".723" stop-color="#578c0e"/><stop offset=".727" stop-color="#558a0d"/><stop offset=".73" stop-color="#53870c"/><stop offset=".734" stop-color="#51850b"/><stop offset=".738" stop-color="#4f830a"/><stop offset=".742" stop-color="#4d8109"/><stop offset=".746" stop-color="#4a7f08"/><stop offset=".75" stop-color="#487c07"/><stop offset=".754" stop-color="#467a06"/><stop offset=".758" stop-color="#447805"/><stop offset=".762" stop-color="#427604"/><stop offset=".766" stop-color="#407403"/><stop offset=".77" stop-color="#3d7102"/><stop offset=".773" stop-color="#3b6f01"/><stop offset=".781" stop-color="#3b6f01"/><stop offset=".813" stop-color="#3b6f01"/><stop offset=".875" stop-color="#3b6f01"/><stop offset="1" stop-color="#3b6f01"/></linearGradient><filter id="b" width="100%" height="100%" x="0%" y="0%"><feColorMatrix color-interpolation-filters="sRGB" values="0 0 0 0 1 0 0 0 0 1 0 0 0 0 1 0 0 0 1 0"/></filter></defs><g clip-path="url(#d)"><g clip-path="url(#e)"><g clip-path="url(#f)"><g clip-path="url(#g)"><g clip-path="url(#h)"><g clip-path="url(#i)"><path fill="url(#j)" d="m-179.48 170.04 345.054 841.362 838.446-343.859L658.965-173.82Zm0 0"/></g></g></g></g></g></g><path fill="none" stroke="#597d19" stroke-width="12.123" d="M101.922 474.012q2.912 0 5.566-2.496 2.69-2.49 4.864-5.727 2.173-3.199 3.199-5.406c2.539-5.078 4.203-9.363 4.992-12.863q1.183-5.247 2.113-6.813-.802.125-2.37 1.375a118 118 0 0 0-3.102 2.559q-1.507 1.311-2.145 2.113-2.24 2.203-5.117 5.344a76 76 0 0 0-5.504 6.812q-2.624 3.68-4 7.426-1.376 3.739-.578 7.262.77.13 1.027.254.287.162 1.055.16Zm63.96-63.063a23.7 23.7 0 0 0 .798-4.031q.258-2.24.511-4.223a438 438 0 0 1 2.051-12.832 568 568 0 0 1 2.688-14.398q1.437-7.23 2.62-12.86c.259-1.218.555-2.808.9-4.77.359-1.983.671-4.105.925-6.366q.387-3.423.258-6.367-.129-2.941-1.184-4.641-2.753.129-5.886 2.754-3.14 2.625-6.368 6.62a99 99 0 0 0-6.015 8.384 248 248 0 0 0-5.059 8.191q-2.205 3.808-3.262 6.016l-5.375 11.55c-1.214 2.712-2.484 5.919-3.808 9.633q-1.952 5.566-3.68 11.196a332 332 0 0 0-2.879 10.078q-.256 1.44-.992 4.129-.702 2.688-1.375 5.312-.64 2.623-.77 3.934a8.4 8.4 0 0 0 2.274-1.153 49 49 0 0 1 2.176-1.468l12.863-7.074a694 694 0 0 1 6.652-3.133c2.453-1.153 4.782-2.114 6.977-2.88q1.312-.291 2.687-.671 1.377-.385 2.274-.93Zm-64.73 67.512q-3.008-.001-4.797-2.305-1.762-2.273-1.761-5.437.128-4.324 2.625-9.121c1.664-3.176 3.73-6.301 6.207-9.375a106 106 0 0 1 7.742-8.508q4.002-3.909 7.137-6.527 2.749-2.244 4.062-3.137c.875-.617 1.48-1.215 1.824-1.793.364-.574.672-1.473.926-2.688a398 398 0 0 1 5.313-21.02 254 254 0 0 1 7.23-21.695 179 179 0 0 1 9.406-20.574q5.314-9.821 11.743-17.691 1.44-1.856 4.129-4.8a37 37 0 0 1 5.886-5.216q3.234-2.303 6.239-2.304 3.393-.001 4.578 2.242 1.183 2.209 1.312 5.086c.082 1.922.125 3.582.125 4.992q-.001 2.495-.734 7.55a420 420 0 0 1-1.762 11.329 485 485 0 0 1-2.27 12.828 1139 1139 0 0 0-2.242 12.125 557 557 0 0 0-1.504 9.121 48 48 0 0 1-.605 3.809q-.321 1.693-.32 3.902 2.237-.001 4-.383c1.195-.258 2.62-.387 4.285-.387q2.464 0 3.265 1.184.799 1.154.254 2.402-.512 1.247-1.949 1.246-1.727.001-1.41-.32c.234-.21 0-.32-.703-.32q-.512 0-1.95.129-1.44.13-4.066.64c-1.234.278-1.984.543-2.238.801q-.385.381-.64 2.496l-6.305 68.024q0 2.878-.192 5.691a94 94 0 0 0-.191 6.211c0 2.621.086 4.746.258 6.367q.254 2.43-.067 3.582c-.21.79-.98 1.184-2.3 1.184q-1.443 0-2.176-2.367c-.473-1.559-.79-3.457-.961-5.696a65 65 0 0 1-.192-6.398q.064-3.074.192-4.543-.001-1.57.191-2.371.193-.768.192-2.461 0-2.368.257-5.985.287-3.585.543-7.453.256-3.872.383-6.882l4.063-38.266q.256-2.624.578-4.703.351-2.11.351-4.863-1.858.926-4.863 1.917-3.006.962-6.559 2.786a520 520 0 0 1-6.367 3.168 83 83 0 0 0-4.258 2.238 90 90 0 0 0-3.996 2.402q-2.145 1.373-5.695 3.614-.259.13-1.379.863-1.086.707-2.078 1.504-.991.768-1.121.898-.383.416-1.246 3.68-.833 3.264-2.305 8.191-1.44 4.926-3.55 10.332a60.4 60.4 0 0 1-5.024 10.207q-2.942 4.798-6.817 7.809-3.868 3.04-8.703 3.039Zm79.684-46.266q-2.494-.001-3.23-3.007-.703-3.007-.192-7.52a52.7 52.7 0 0 1 1.918-9.055c.918-3.027 1.941-5.547 3.074-7.55q1.696-3.007 3.133-3.008 2.244 0 2.113 2.047-.129 2.016-1.312 5.375-1.184 3.327-2.367 7.328t-1.184 7.773l6.305-9.566q.382-.768 1.695-2.719a26 26 0 0 1 2.941-3.68q1.635-1.727 3.2-1.726 1.599 0 2.496 2.11l.8 7.327q0 1.185.13 3.68.128 2.495.574 5.055.479 2.56 1.504 4.382c.703 1.22 1.675 1.825 2.914 1.825q1.95 0 4.093-2.336 2.175-2.366 4.192-5.438a267 267 0 0 1 3.68-5.441q1.662-2.367 2.558-2.367c1.324 0 1.942.504 1.856 1.504q-.124 1.503-1.309 3.488a51 51 0 0 1-2.434 3.648q-1.247 1.694-1.504 2.11-.925 1.185-2.496 3.007a41 41 0 0 1-3.296 3.426c-1.13 1.043-2.215 1.696-3.262 1.95q-1.312.386-2.496.386-3.007-.002-4.766-2.207a17 17 0 0 1-2.687-4.863q-1.313-3.937-1.442-7.008-.129-3.07 0-5.25.127-2.176-.543-3.324-1.57 1.02-3.328 4.191a344 344 0 0 0-3.68 6.75c-1.257 2.387-2.527 4.438-3.808 6.145q-1.889 2.556-3.84 2.558Zm40.21-2.754q.001 1.184.548 1.184.894.002 2.398-2.621 1.537-2.626 3.23-6.559a256 256 0 0 0 3.266-7.937q1.565-3.996 2.621-7.008 1.06-3.005 1.059-3.52-2.242.259-3.488 1.38a16 16 0 0 0-2.274 2.527q-3.42 4.224-5.406 10.3-1.952 6.08-1.953 12.254Zm14.946-30.011q0-1.436.446-2.496.481-1.056.863-2.368l2.754-14.78q.413-1.441.992-4.321a31 31 0 0 1 1.629-5.535c.707-1.75 1.582-2.707 2.625-2.88q.258.001.383-.062a.8.8 0 0 1 .289-.066q1.823 0 2.082 2.05.253 2.014-.356 4.895a47 47 0 0 1-1.437 5.504q-.832 2.62-1.09 3.805a108.4 108.4 0 0 0-4.063 21.758 224 224 0 0 0-.734 22.43q.222 11.26.352 22.269.129 4.19.703 6.75.609 2.56.48 3.586-.129 1.054-2.496 1.054-1.438-.001-2.305-3.23-.863-3.205-1.246-8.383-.387-5.156-.386-11.039c0-3.95.043-7.797.128-11.55q.129-5.634.258-9.696.13-4.064.13-5.375c-.345.34-.555.563-.641.672q-.129.128-.387 1.023l-4.606 11.133a264 264 0 0 1-2.078 4.48c-.793 1.665-1.781 3.106-2.976 4.32q-1.763 1.825-4.258 1.825-2.75 0-3.742-2.625-.96-2.625-.575-6.75c.254-2.754.883-5.652 1.887-8.703a53 53 0 0 1 3.809-8.703c1.535-2.75 3.242-5.004 5.117-6.75q2.818-2.625 5.824-2.625 1.056-.001 1.121.191.061.194 1.504.192Zm11.66 39.066q-1.313 0-1.566-1.629a15.6 15.6 0 0 1-.129-3.488q.129-1.824.129-2.242a58 58 0 0 1-.066-4.766 63 63 0 0 0-.063-4.926q0-.93.063-3.457.065-2.561.382-5.437c.239-1.942.567-3.606.993-4.992q.673-2.115 1.699-2.114 2.62.002 2.687 1.727c.04 1.133-.023 2.613-.195 4.45q-.124.925-.125 2.046v2.145q0 1.311-.129 1.726-.129.388-.129 1.695a15.6 15.6 0 0 0 2.625-2.43c.79-.917 2.184-1.374 4.192-1.374.617 0 1.43-.024 2.43-.067a75 75 0 0 1 3.198-.062q2.884-.001 5.375.32 2.497.319 2.497 1.633.001 1.312-1.375 1.726-1.375.382-3.36.383-1.312 0-2.687-.062a53 53 0 0 0-2.399-.067q-3.68 0-4.93.387-1.247.382-2.812 3.008a44 44 0 0 0-1.793 3.68q-.833 1.95-1.215 4.316a13 13 0 0 0-.355 3.555q.098 1.822-.383 3.07-.447 1.247-2.559 1.246Zm25.551-23.195c1.664-.875 3.5-2.078 5.504-3.617q3.04-2.303 3.297-5.438c-1.129.172-2.336.777-3.617 1.824a17.7 17.7 0 0 0-3.262 3.551q-1.377 1.95-1.922 3.68Zm-5.887 3.137q0-3.265 2.145-7.075c1.45-2.535 3.242-4.703 5.375-6.492q3.233-2.688 6.367-2.687 4.318 0 4.512 3.293c.148 2.175-.777 4.535-2.785 7.074q-1.6 1.694-4.735 3.933-3.135 2.208-6.14 2.465c0 1.406.039 2.656.125 3.742q.13 1.635 1.824 3.329c1.133 1.152 2.57 1.726 4.32 1.726q3.423 0 7.07-2.144 3.682-2.174 5.633-3.614c.532-.449.95-.8 1.246-1.054q.482-.418 1.122-.93c1.835-1.387 2.984-2.41 3.457-3.07q.734-.996 1.246-1.313.544-.321 2.496-.32.286 1.44.222 1.953c-.043.34-.37.863-.992 1.566q-2.366 2.368-5.98 5.375a46.5 46.5 0 0 1-7.711 5.246q-4.131 2.244-8.192 2.243-2.114 0-4-.704-1.887-.737-3.617-2.464c-1.554-1.559-2.453-3.168-2.687-4.832a42 42 0 0 1-.32-5.246Zm28.313 7.324c0-1.832.437-4.106 1.309-6.813q1.314-4.066 3.648-8.062 2.366-4 5.441-6.594c2.067-1.746 4.235-2.621 6.493-2.621 2.113 0 3.82.605 5.12 1.824q1.987 1.821 2.368 3.742.387 1.887-1.313 1.887-1.312.001-2.687-1.504-1.377-1.502-3.2-1.504-1.438.001-3.488 1.696-2.014 1.697-4.925 6.687-1.31 2.115-2.434 5.441-1.085 3.329-1.086 6.622c.172-.168.234-.235.191-.192q-.065.065.45-.48l1.054-1.567c.703-1.047 1.516-2.398 2.434-4.062a398 398 0 0 1 2.812-5.024q1.442-2.561 2.625-4.32 1.185-1.793 1.825-1.793 2.368.002 2.75 1.727.385 1.699.32 4.191a20.7 20.7 0 0 0 .48 4.96q.769 3.551 2.399 5.185c1.11 1.085 2.36 1.632 3.746 1.632q3.679 0 8.125-4.449 1.857-1.695 2.625-2.816c.531-.746 1.238-1.598 2.113-2.559q.893-1.312 2.336-1.312c.957 0 1.375.812 1.246 2.433-.129 1.598-1.843 4.02-5.152 7.262l-3.934 3.137c-2.539 1.75-4.992 2.62-7.36 2.62q-3.262.001-5.694-1.948a13.35 13.35 0 0 1-3.746-4.864q-1.309-2.881-1.31-5.633c-.597.45-1.292 1.418-2.081 2.914-.79 1.47-1.64 3.06-2.559 4.766q-1.376 2.559-2.816 4.45c-.961 1.257-1.918 1.886-2.879 1.886q-3.678 0-4.48-1.695c-.512-1.133-.766-2.88-.766-5.25Zm131.84-12.828q2.881-.675 5.761-2.047 2.877-1.379 6.176-1.38c.168 0 .364.024.574.067q.322.064.579.063 5.788.416 9.117 3.617 3.358 3.199 4.863 8.125 1.506 4.928 1.887 10.559c.258 3.753.387 7.425.387 11.007q1.182-.257 2.878-1.504a55 55 0 0 0 3.422-2.687q1.7-1.44 2.625-2.113l6.301-5.246q2.466-2.08 5.793-5.473a497 497 0 0 0 5.727-5.918c1.214-1.3 2.039-2.324 2.464-3.07q.673-1.12 3.168-1.121h.801q.382 1.567.383 2.175 0 .575-1.055 1.887-.645.932-1.183 1.664-.516.704-1.442 1.344a41 41 0 0 0-1.054 1.601q-.387.639-1.442 1.407a10.9 10.9 0 0 1-2.465 2.496l-11.004 10.238a27 27 0 0 1-2.847 2.465 191 191 0 0 1-3.074 2.367c-2.344 1.75-4.118 2.996-5.309 3.742q-1.764 1.12-2.496 1.824-.704.738-.899 1.985-.188 1.247-.863 4.129a99.3 99.3 0 0 1-8.734 26.523c-4.137 8.445-9.567 16.031-16.285 22.75q-7.2 7.197-14.301 10.399-7.072 3.229-12.961 3.23-6.428 0-10.688-3.36-4.254-3.326-5.117-9.085-.832-5.761 2.817-12.992 2.62-4.958 6.558-9.375 3.937-4.383 8.254-7.645 9.826-7.744 19.324-13.121a3781 3781 0 0 0 20-11.39 770 770 0 0 1 4.575-2.56c1.066-.573 1.77-1.429 2.113-2.558v-.383q.64-3.808.64-8.992t-1.12-10.144q-1.091-4.988-3.712-8.317-2.624-3.362-7.199-3.36-2.114-.001-4.48.802-5.373 1.693-8.192 3.55c-1.875 1.215-3.457 2.41-4.734 3.582q-1.887 1.76-4.895 3.743-.385.129-.578.386c-.129.168-.414.254-.863.254q-.13 0-.383-.062a2 2 0 0 0-.511-.067c-1.41-.254-2.09-.882-2.051-1.886q.063-1.5 1.187-3.2 1.119-1.728 1.758-2.496.673-1.055 1.246-1.824c.406-.531.824-1.11 1.25-1.726A663 663 0 0 1 428.656 401q5.244-7.2 9.95-15.2 1.568-2.752 3.648-7.456 2.108-4.734 4-10.301a72 72 0 0 0 2.879-11.07q.99-5.502.094-9.95c-.36-1.75-.875-2.976-1.536-3.68q-.961-1.058-2.27-1.058-1.569.001-3.554 1.25-1.95 1.246-3.742 2.88a78 78 0 0 0-2.91 2.815q-5.508 5.502-10.559 13.5-5.056 8.001-9.375 17.313a281 281 0 0 0-8 19.066 332 332 0 0 0-6.558 19.07q-2.882 9.313-4.832 17.024-1.313 5.116-2.625 9.887c-.871 3.2-1.664 6.59-2.368 10.172l-2.496 16.64q-.381 1.697-.797 2.207-.387.547-1.824 1.215-2.464-.543-2.562-1.984-.06-1.437.097-3.934l2.465-24.636a598 598 0 0 1 3.742-32.829 858 858 0 0 0 4-32.57q.64-4.063 1.086-8.258.48-4.188.48-8.254 0-2.08.13-4.765.13-2.69-.13-4.547-.381-2.205-.734-3.836a44 44 0 0 0-.832-3.488q-2.11.128-3.617 2.3c-1 1.43-1.855 2.766-2.558 4-3.668 5.504-6.817 11.649-9.438 18.43q-3.902 10.144-5.344 20.223-.544 3.551-.671 8.129-.13 4.572.925 7.742.769 1.95 1.825 2.43 1.055.45 2.015.449c.664 0 1.14.172 1.442.512q.48.51.093 2.496a15 15 0 0 1-3.293.382q-2.08 0-3.328-.96-1.249-.992-2.304-2.973-1.696-3.778-1.696-8.29c0-3.027.172-5.898.512-8.605.45-4.375 1.3-8.691 2.559-12.957q1.92-6.433 4.128-12.48l4.063-8.895q.675-1.438 2.176-4.32a54 54 0 0 1 3.586-5.918c1.406-2.004 2.867-3.703 4.382-5.086q2.304-2.114 4.672-2.113 2.24 0 3.934 2.238c1.492 1.836 2.477 4.023 2.945 6.559q.735 3.779.672 7.84-.065 4.066-.066 7.617 0 3.261-.352 5.949-.315 2.69-.574 5.824a122 122 0 0 1-1.055 11.613 530 530 0 0 1-1.699 11.582l-1.98 16.926a62 62 0 0 1-.512 2.946q-.258 1.247-.258 2.816.926-1.185 1.313-2.879c.253-1.133.511-2.137.765-3.008l1.856-5.922c2.261-7.507 4.984-15.015 8.16-22.523q4.798-11.263 10.304-21.5 2.111-3.394 5.375-8.387a117 117 0 0 1 7.262-9.82q4.002-4.863 8.192-8.063 4.223-3.198 8.125-3.199 3.17 0 5.504 2.559c1.578 1.683 2.68 4.277 3.296 7.773q.928 5.506-.191 11.68c-.746 4.094-1.91 8.246-3.488 12.445a117 117 0 0 1-5.313 12.13q-2.942 5.823-5.82 10.523a406 406 0 0 1-2.883 4.289 568 568 0 0 1-3.871 5.566q-2.016 2.883-3.68 5.25-1.629 2.334-2.144 3.39Zm-24.762 100.66c1.918 0 3.883-.356 5.887-1.059q3.006-1.053 4.992-1.984 7.454-3.775 12.957-9.5 5.5-5.697 9.695-12.64a134 134 0 0 0 7.485-14.27q.644-1.44 1.632-4.192a109 109 0 0 0 1.954-5.984 89 89 0 0 0 1.632-5.95q.67-2.751.672-4.32l-30.011 17.149-11.52 8.383q-2.238 1.729-5.25 4.671-3.006 2.947-4.863 5.313c-3.496 4.543-5.492 8.648-5.98 12.32q-.704 5.502 2.238 8.766c1.984 2.195 4.808 3.297 8.48 3.297Zm82.414-84.664q-.002-6.558.77-14.14A217 217 0 0 1 488 399.718q1.313-7.488 2.879-13.535.675-1.952 1.312-4.383.676-2.433 1.696-4.192 1.056-1.757 2.785-1.757 1.565 0 1.953 1.183.38 1.149.063 2.813a17 17 0 0 1-.864 3.007c-.344.918-.554 1.547-.64 1.891q-1.057 3.933-2.434 10.684a331 331 0 0 0-2.621 14.75 231 231 0 0 0-1.922 15.87q-.64 7.84-.254 14.208.415 6.367 2.11 9.758 2.243-1.185 3.68-3.551a47 47 0 0 0 2.495-4.574 223 223 0 0 0 5.887-12.192 149 149 0 0 1 6.047-12.062q1.026-2.08 2.21-2.078.542 0 .864.445.318.449.32.992.001.387-1.058 2.496-1.053 2.081-2.176 4.32c-.723 1.473-1.215 2.43-1.469 2.88a357 357 0 0 0-2.976 6.43q-1.635 3.649-3.2 7.198-1.567 3.553-3.007 6.016-.674 1.056-1.793 2.816-1.088 1.793-2.399 3.106-1.314 1.307-3.008 1.308-2.625-.001-4.16-2.62c-1.004-1.75-1.726-3.938-2.175-6.56a71 71 0 0 1-.832-8.128 161 161 0 0 1-.192-7.328Zm22.809-3.168c0-1.832.437-4.106 1.312-6.813q1.312-4.066 3.649-8.062 2.367-4 5.437-6.594 3.105-2.62 6.496-2.621c2.11 0 3.817.605 5.117 1.824q1.986 1.821 2.372 3.742.38 1.887-1.313 1.887-1.314.001-2.687-1.504-1.377-1.502-3.2-1.504-1.442.001-3.488 1.696-2.017 1.697-4.93 6.687-1.311 2.115-2.43 5.441-1.09 3.329-1.09 6.622c.173-.168.235-.235.192-.192l.45-.48 1.054-1.567c.707-1.047 1.516-2.398 2.434-4.062a396 396 0 0 1 2.816-5.024c.961-1.707 1.832-3.148 2.621-4.32q1.186-1.793 1.824-1.793 2.368.002 2.754 1.727c.254 1.132.364 2.53.32 4.191a20.7 20.7 0 0 0 .481 4.96q.766 3.551 2.399 5.185c1.109 1.085 2.355 1.632 3.742 1.632q3.68 0 8.129-4.449 1.852-1.695 2.62-2.816.803-1.118 2.114-2.559.896-1.312 2.336-1.312t1.246 2.433c-.125 1.598-1.844 4.02-5.148 7.262l-3.938 3.137c-2.539 1.75-4.992 2.62-7.36 2.62q-3.262.001-5.695-1.948a13.34 13.34 0 0 1-3.742-4.864c-.875-1.922-1.312-3.797-1.312-5.633-.598.45-1.29 1.418-2.078 2.914l-2.563 4.766c-.914 1.707-1.855 3.188-2.812 4.45q-1.442 1.886-2.883 1.886-3.68 0-4.477-1.695c-.511-1.133-.77-2.88-.77-5.25Zm41.683 6.433q-2.494-.001-3.23-3.007-.705-3.007-.192-7.52a52.4 52.4 0 0 1 1.918-9.055c.918-3.027 1.942-5.547 3.075-7.55q1.695-3.007 3.132-3.008 2.244 0 2.114 2.047-.13 2.016-1.313 5.375-1.183 3.327-2.367 7.328t-1.184 7.773l6.301-9.566q.387-.768 1.7-2.719a25.6 25.6 0 0 1 2.94-3.68q1.635-1.727 3.2-1.726 1.599 0 2.496 2.11l.8 7.327q0 1.185.13 3.68.129 2.495.574 5.055.479 2.56 1.504 4.382c.703 1.22 1.676 1.825 2.91 1.825 1.305 0 2.668-.778 4.098-2.336q2.174-2.366 4.191-5.438a238 238 0 0 1 3.68-5.441q1.663-2.367 2.558-2.367c1.325 0 1.942.504 1.856 1.504q-.13 1.503-1.313 3.488a50 50 0 0 1-2.43 3.648q-1.246 1.694-1.503 2.11-.926 1.185-2.496 3.007a42 42 0 0 1-3.297 3.426c-1.129 1.043-2.219 1.696-3.262 1.95q-1.313.386-2.496.386-3.007-.002-4.766-2.207a17.1 17.1 0 0 1-2.691-4.863q-1.308-3.937-1.437-7.008-.129-3.07 0-5.25.126-2.176-.543-3.324-1.57 1.02-3.329 4.191a307 307 0 0 0-3.68 6.75q-1.886 3.582-3.808 6.145-1.888 2.556-3.84 2.558Zm35.637 55.16q2.624 0 5.313-2.625c1.789-1.726 3.125-3.335 3.996-4.832q4.575-7.74 5.824-16.378a595 595 0 0 0 2.176-16.641l.511-7.613c-.53.172-1.343.843-2.43 2.015a60 60 0 0 0-3.136 3.742 126 126 0 0 0-2.047 2.754c-.96 1.235-2.164 2.88-3.617 4.926a213 213 0 0 0-4.254 6.336c-1.387 2.195-2.434 4.129-3.137 5.793q-.38 1.055-1.406 3.68-1.055 2.62-1.922 5.82c-.574 2.133-.926 4.184-1.055 6.145q-.194 2.975.93 4.925 1.119 1.952 4.254 1.953Zm-1.441-59.48q0-3.135 1.89-7.453 1.918-4.352 5.055-8.418 3.135-4.06 6.75-6.75 3.615-2.689 7.137-2.688 3.679 0 5.183 2.625c1 1.747.938 3.497-.195 5.247q-1.564-.13-2.11-1.184a80 80 0 0 0-1.054-2.082c-.344-.703-.992-1.055-1.953-1.055q-2.882 0-5.887 2.754-3.012 2.748-5.566 6.75c-1.707 2.664-3.086 5.313-4.13 7.934q-1.568 3.938-1.566 6.398 2.333-.637 4.157-2.652a93 93 0 0 1 3.168-3.36q1.311-1.44 2.945-3.648a173 173 0 0 0 2.816-3.969q.67-1.025 1.696-2.59 1.056-1.6 2.62-1.601 1.442.002 2.243 1.726.797 1.698 1.055 4.258a51 51 0 0 1 .257 5.117v4.258c.703-.191 1.77-.855 3.2-1.984 1.449-1.133 3.05-2.41 4.796-3.84a55 55 0 0 1 5.153-3.809q2.56-1.664 4.289-1.664.766.002 1.023.864.288.865-.129 1.632-.129.128-1.886 1.504a194 194 0 0 1-4.192 3.168 116 116 0 0 0-4.738 3.617q-2.269 1.824-3.453 2.973a13.2 13.2 0 0 1-2.242 1.602c-.79.425-1.266 1.207-1.438 2.336a67 67 0 0 0-.383 6.941q0 3.938-.609 8.93a118 118 0 0 1-1.633 10.14 110 110 0 0 1-2.43 9.758c-.918 3.074-1.898 5.653-2.945 7.746q-3.773 7.483-7.933 10.559-4.129 3.07-7.52 3.07-3.679.001-6.016-2.687-2.367-2.689-2.367-6.625 0-4.189.543-7.2a29 29 0 0 1 1.633-5.82q1.09-2.817 2.941-6.496c2.606-5.332 5.547-10.187 8.832-14.559q4.93-6.527 10.942-12.957 1.698-1.858 1.504-6.113a189 189 0 0 1-.192-8.316q-1.054.413-2.941 3.23-1.889 2.813-4.129 4.766-1.312 1.313-3.742 3.488-2.433 2.145-4.895 2.145-1.985.001-2.687-1.024-.737-1.054-.801-2.496a57 57 0 0 1-.066-2.496Zm48.882 11.648c-1.75 0-3.304-.566-4.671-1.699q-2.017-1.692-3.07-3.52-2.338-4.476-2.688-10.558-.322-6.11.734-11.07.258-1.437.703-3.453c.32-1.368.781-2.57 1.38-3.618q.924-1.598 2.237-1.597 3.005-.002 2.946 2.047-.066 2.016-1.121 6.3-1.025 4.259-1.024 10.915c0 1.32.168 2.898.512 4.734q.509 2.748 1.633 4.863 1.119 2.08 2.812 2.078c1.41 0 3.008-.605 4.801-1.824a35.6 35.6 0 0 0 4.961-4.125q2.301-2.304 3.23-3.488.256-.257 1.438-1.762c.789-1 1.73-2.133 2.816-3.39a39 39 0 0 1 3.2-3.36q1.569-1.438 2.496-1.437.93-.002.93 1.566-.002.925-1.25 2.816a51 51 0 0 1-2.973 4 154 154 0 0 1-3.328 3.934q-1.633 1.822-2.434 2.625l-3.742 3.742a24.4 24.4 0 0 1-4.77 3.711q-2.621 1.57-5.758 1.57Zm-4.191-52.027c0-1.473.395-2.75 1.184-3.84q1.183-1.664 2.625-1.664 1.566-.001 2.62 1.985 1.829 3.65.45 5.695c-.918 1.344-2.035 2.016-3.36 2.016q-1.278.001-2.398-1.024c-.746-.703-1.121-1.762-1.121-3.168Zm26.871 44.7q-2.494-.002-3.23-3.008-.707-3.007-.192-7.52a52.4 52.4 0 0 1 1.918-9.055c.918-3.027 1.942-5.547 3.074-7.55q1.696-3.007 3.133-3.008 2.244 0 2.114 2.047-.13 2.016-1.313 5.375-1.183 3.327-2.367 7.328t-1.184 7.773l6.301-9.566q.387-.768 1.7-2.719a26 26 0 0 1 2.94-3.68q1.635-1.727 3.2-1.726 1.599 0 2.496 2.11l.8 7.327q0 1.185.13 3.68.129 2.495.574 5.055.479 2.56 1.504 4.382c.703 1.22 1.676 1.825 2.914 1.825q1.95 0 4.094-2.336 2.174-2.366 4.191-5.438a238 238 0 0 1 3.68-5.441q1.663-2.367 2.558-2.367c1.324 0 1.942.504 1.856 1.504q-.13 1.503-1.313 3.488a50 50 0 0 1-2.43 3.648q-1.246 1.694-1.503 2.11-.927 1.185-2.496 3.007a42 42 0 0 1-3.297 3.426c-1.13 1.043-2.22 1.696-3.262 1.95q-1.312.386-2.496.386-3.007-.002-4.766-2.207a17 17 0 0 1-2.687-4.863q-1.313-3.937-1.442-7.008-.129-3.07 0-5.25.127-2.176-.543-3.324-1.57 1.02-3.328 4.191a324 324 0 0 0-3.68 6.75q-1.886 3.582-3.808 6.145-1.889 2.556-3.84 2.558Zm42.195 3.808q1.953-.546 3.52-3.488 1.599-2.946 2.238-6.72.674-3.807.32-7.007-.315-3.234-2.015-4.418-.415 1.44-1.469 4.129a94 94 0 0 0-2.015 5.918 36 36 0 0 0-1.313 6.273q-.322 3.07.734 5.313Zm-6.558-4.45q0-1.727.703-5.054.74-3.361 2.047-7.2a69 69 0 0 1 2.945-7.327q1.631-3.488 3.52-5.727 1.921-2.238 3.902-2.238 1.313 0 1.824 1.183c.344.79.426 1.45.258 1.98q-.259.645-.992 1.313c-.469.43-.875.907-1.215 1.442q.252.896 1.277 2.015 1.056 1.12 2.114 2.977 1.053 1.822 1.375 4.957.32 3.136-.735 8.258c-.96 4.543-2.488 7.953-4.578 10.238q-3.135 3.389-6.14 3.39-2.497-.002-4.418-2.558-1.887-2.562-1.887-7.648Zm0 0"/><path fill="#fff" d="M101.937 474.01c1.915 0 3.77-.836 5.563-2.5a32 32 0 0 0 4.844-5.703q2.17-3.206 3.218-5.438 3.797-7.593 4.97-12.844 1.182-5.237 2.109-6.812-.785.122-2.36 1.375a96 96 0 0 0-3.078 2.562c-1 .875-1.719 1.57-2.156 2.094q-2.238 2.217-5.125 5.36a74 74 0 0 0-5.5 6.828c-1.75 2.445-3.086 4.914-4 7.406q-1.377 3.732-.578 7.265.778.139 1.047.266.262.14 1.046.14m63.954-63.047c.351-1.219.613-2.57.78-4.063q.264-2.231.532-4.187.779-5.637 2.031-12.844a560 560 0 0 1 2.688-14.422q1.436-7.218 2.625-12.844.389-1.84.906-4.78c.352-1.97.66-4.087.922-6.36q.388-3.405.266-6.36-.13-2.952-1.172-4.656-2.766.141-5.907 2.766-3.14 2.613-6.359 6.61a100 100 0 0 0-6.031 8.39 256 256 0 0 0-5.047 8.187q-2.221 3.798-3.266 6.032l-5.375 11.53q-1.844 4.066-3.812 9.641a260 260 0 0 0-3.656 11.204 302 302 0 0 0-2.891 10.093q-.27 1.442-.984 4.125-.72 2.689-1.375 5.313-.658 2.611-.782 3.922a8.7 8.7 0 0 0 2.282-1.172 46 46 0 0 1 2.171-1.453l12.844-7.078a726 726 0 0 1 6.688-3.141q3.668-1.701 6.937-2.875 1.312-.264 2.688-.656 1.371-.388 2.297-.922m-64.735 67.5q-3.017 0-4.797-2.297-1.764-2.297-1.765-5.438.14-4.328 2.625-9.109c1.656-3.187 3.726-6.312 6.218-9.375a105 105 0 0 1 7.735-8.516c2.664-2.625 5.047-4.804 7.14-6.546q2.75-2.233 4.063-3.141 1.312-.92 1.828-1.781c.352-.57.664-1.47.938-2.688q2.215-10.09 5.296-21.031a246 246 0 0 1 7.204-21.688 179 179 0 0 1 9.437-20.578q5.311-9.827 11.734-17.703 1.454-1.828 4.125-4.781a36.8 36.8 0 0 1 5.891-5.234q3.218-2.298 6.234-2.297 3.406.001 4.579 2.234 1.183 2.22 1.312 5.11.14 2.876.14 4.968-.001 2.502-.718 7.547-.721 5.05-1.766 11.344-1.048 6.281-2.297 12.844a855 855 0 0 0-2.234 12.125 390 390 0 0 0-1.5 9.093 62 62 0 0 1-.594 3.797q-.327 1.706-.328 3.938 2.232 0 4-.391 1.764-.388 4.266-.39 2.482.002 3.265 1.187.796 1.173.266 2.422-.516 1.235-1.969 1.234-1.703 0-1.375-.328c.22-.219-.023-.328-.718-.328q-.516 0-1.97.14c-.96.086-2.312.297-4.062.641-1.218.274-1.96.54-2.218.797q-.392.393-.657 2.484l-6.297 68.016q-.002 2.89-.203 5.703a95 95 0 0 0-.187 6.235q-.002 3.918.265 6.343.265 2.437-.062 3.61-.328 1.185-2.297 1.187-1.44-.002-2.172-2.36-.72-2.361-.984-5.702a67 67 0 0 1-.188-6.422q.06-3.08.188-4.531-.001-1.564.203-2.36.201-.785.203-2.484-.001-2.36.25-5.969.263-3.597.531-7.469.263-3.862.391-6.875l4.062-38.265c.176-1.75.375-3.32.594-4.72q.328-2.107.328-4.858-1.846.924-4.859 1.906-3.001.985-6.547 2.812a868 868 0 0 1-6.36 3.157 74 74 0 0 0-4.265 2.218c-1.219.7-2.555 1.508-4 2.422-1.437.918-3.336 2.121-5.687 3.61q-.269.126-1.375.859c-.743.48-1.438.98-2.094 1.5q-.984.783-1.125.922-.394.39-1.25 3.672-.845 3.262-2.281 8.172-1.44 4.92-3.547 10.359c-1.399 3.633-3.078 7.047-5.047 10.234q-2.94 4.78-6.813 7.797c-2.574 2.008-5.476 3.016-8.703 3.016m0 0"/><path fill="#fff" d="M180.83 432.197q-2.503 0-3.22-3.015c-.476-2.008-.546-4.52-.202-7.532q.528-4.53 1.906-9.047 1.372-4.53 3.078-7.53 1.716-3.015 3.156-3.016c1.477 0 2.176.68 2.094 2.03q-.129 2.036-1.312 5.376a153 153 0 0 0-2.36 7.328q-1.172 4.001-1.172 7.797l6.282-9.563c.257-.52.828-1.437 1.703-2.75a26.4 26.4 0 0 1 2.953-3.672c1.094-1.132 2.164-1.703 3.219-1.703q1.558.001 2.484 2.094l.781 7.344c0 .781.04 2.008.125 3.672q.14 2.485.594 5.047.467 2.55 1.516 4.39c.695 1.219 1.656 1.828 2.875 1.828q1.968.001 4.125-2.36 2.168-2.355 4.203-5.437a270 270 0 0 1 3.672-5.437c1.093-1.57 1.941-2.36 2.546-2.36q1.968.002 1.844 1.516-.129 1.5-1.312 3.469a49 49 0 0 1-2.422 3.672 103 103 0 0 0-1.516 2.094 83 83 0 0 1-2.484 3.015 43 43 0 0 1-3.281 3.406q-1.707 1.565-3.266 1.97c-.875.26-1.711.39-2.5.39q-3.018 0-4.781-2.219a16.6 16.6 0 0 1-2.688-4.86q-1.313-3.934-1.453-7.015-.129-3.077 0-5.234.141-2.17-.516-3.344-1.564 1.049-3.343 4.187a279 279 0 0 0-3.672 6.75q-1.893 3.611-3.797 6.172-1.892 2.548-3.86 2.547m0 0"/><path fill="#fff" d="M221.067 429.447q0 1.172.515 1.172c.614 0 1.422-.867 2.422-2.61q1.513-2.625 3.219-6.562a258 258 0 0 0 3.266-7.922 185 185 0 0 0 2.625-7.015q1.044-3.013 1.046-3.547c-1.48.18-2.636.64-3.468 1.39a16 16 0 0 0-2.297 2.547c-2.274 2.793-4.063 6.219-5.375 10.282-1.305 4.062-1.953 8.152-1.953 12.265m14.937-30.015q-.002-1.437.453-2.485.468-1.061.86-2.375l2.75-14.797q.387-1.452.968-4.328a32 32 0 0 1 1.641-5.5c.707-1.75 1.582-2.71 2.625-2.89q.263 0 .39-.063a.7.7 0 0 1 .266-.062c1.227 0 1.926.68 2.094 2.03q.263 2.034-.328 4.923a49 49 0 0 1-1.438 5.5q-.844 2.613-1.109 3.797a107.7 107.7 0 0 0-4.062 21.75c-.618 7.43-.86 14.902-.735 22.421.133 7.512.25 14.93.344 22.266q.122 4.2.719 6.75.593 2.56.453 3.61-.129 1.044-2.485 1.046-1.44-.001-2.296-3.218-.845-3.207-1.25-8.375-.392-5.174-.391-11.063c0-3.937.039-7.785.125-11.547q.139-5.637.266-9.703.14-4.061.14-5.375l-.672.672q-.128.13-.375 1.031l-4.593 11.14q-.926 1.971-2.11 4.47-1.173 2.486-2.937 4.328c-1.18 1.218-2.594 1.828-4.25 1.828q-2.766 0-3.75-2.625-.972-2.625-.578-6.75c.257-2.75.89-5.649 1.89-8.703a50.6 50.6 0 0 1 3.797-8.72q2.296-4.135 5.11-6.75 2.824-2.625 5.843-2.624 1.044.002 1.11.203.074.188 1.515.188m11.652 39.046c-.867 0-1.386-.539-1.562-1.625a15 15 0 0 1-.14-3.468q.14-1.841.14-2.235a56 56 0 0 1-.078-4.781q.076-2.438-.063-4.922 0-.92.063-3.469.076-2.561.406-5.437.328-2.888.984-4.984.655-2.093 1.704-2.094 2.607.002 2.671 1.703.077 1.705-.187 4.453a15 15 0 0 0-.125 2.031v2.157q0 1.313-.14 1.718c-.087.262-.126.824-.126 1.688a15 15 0 0 0 2.61-2.422c.789-.914 2.191-1.375 4.203-1.375q.92 0 2.422-.063a83 83 0 0 1 3.218-.062c1.914 0 3.704.11 5.36.328 1.664.219 2.5.766 2.5 1.64 0 .868-.461 1.434-1.375 1.704q-1.376.39-3.344.39-1.314 0-2.687-.062a45 45 0 0 0-2.422-.078q-3.674 0-4.922.406-1.236.393-2.813 3a49 49 0 0 0-1.78 3.688c-.563 1.304-.978 2.742-1.235 4.312a13.6 13.6 0 0 0-.328 3.547q.06 1.83-.391 3.078c-.305.824-1.156 1.234-2.563 1.234m0 0"/><path fill="#fff" d="M273.22 415.29q2.485-1.311 5.5-3.608 3.013-2.298 3.282-5.438-1.705.269-3.61 1.844a18 18 0 0 0-3.28 3.531c-.919 1.313-1.547 2.54-1.891 3.672m-5.905 3.142q0-3.282 2.156-7.079 2.168-3.795 5.375-6.484 3.217-2.686 6.375-2.687 4.313 0 4.5 3.28.201 3.27-2.797 7.079-1.582 1.706-4.734 3.937c-2.094 1.48-4.149 2.309-6.157 2.485 0 1.398.04 2.64.125 3.734q.14 1.643 1.844 3.344 1.701 1.704 4.328 1.703 3.405 0 7.078-2.156 3.67-2.169 5.641-3.61.779-.655 1.234-1.046.47-.406 1.125-.922 2.748-2.093 3.47-3.078c.476-.657.89-1.094 1.233-1.313.352-.219 1.188-.328 2.5-.328q.264 1.44.188 1.969c-.043.343-.367.867-.969 1.562q-2.36 2.362-5.969 5.375a46.6 46.6 0 0 1-7.734 5.25q-4.126 2.22-8.187 2.219-2.097.001-4-.719-1.91-.715-3.61-2.422-2.36-2.357-2.687-4.843a40 40 0 0 1-.328-5.25m0 0"/><path fill="#fff" d="M295.628 425.775q0-2.747 1.312-6.812 1.312-4.06 3.672-8.063c1.57-2.664 3.383-4.875 5.437-6.625q3.075-2.625 6.485-2.625 3.14.002 5.11 1.844 1.967 1.83 2.359 3.734.386 1.909-1.313 1.907-1.314 0-2.687-1.5c-.918-1.008-1.985-1.516-3.204-1.516q-1.44.002-3.468 1.703-2.033 1.705-4.922 6.672c-.875 1.406-1.684 3.227-2.422 5.453q-1.112 3.328-1.11 6.61.247-.264.188-.188l.453-.469 1.063-1.562q1.044-1.577 2.422-4.063a467 467 0 0 1 2.812-5.047q1.436-2.56 2.61-4.328 1.185-1.764 1.843-1.765 2.357.002 2.75 1.703.406 1.704.328 4.187-.064 2.486.47 4.985.78 3.532 2.421 5.172 1.639 1.64 3.734 1.64 3.671 0 8.125-4.453c1.22-1.133 2.086-2.07 2.61-2.812q.796-1.123 2.11-2.563.918-1.312 2.358-1.312 1.436 0 1.235 2.421c-.125 1.618-1.852 4.043-5.172 7.282l-3.922 3.14q-3.815 2.625-7.344 2.625-3.282 0-5.703-1.968a13.2 13.2 0 0 1-3.734-4.844q-1.313-2.888-1.313-5.64-.925.656-2.109 2.89a913 913 0 0 1-2.547 4.781q-1.377 2.55-2.812 4.453-1.44 1.891-2.875 1.89-3.673.001-4.47-1.702c-.523-1.133-.78-2.88-.78-5.235m131.837-12.843a27.4 27.4 0 0 0 5.766-2.032 14.2 14.2 0 0 1 6.172-1.375c.164 0 .359.024.578.063q.326.063.593.062 5.765.393 9.11 3.61c2.226 2.136 3.844 4.843 4.844 8.125q1.512 4.91 1.906 10.547.388 5.64.39 11.015 1.185-.269 2.891-1.515a68 68 0 0 0 3.406-2.688q1.7-1.436 2.625-2.094l6.282-5.25q2.498-2.09 5.828-5.5a529 529 0 0 0 5.703-5.89c1.226-1.313 2.062-2.336 2.5-3.078q.656-1.125 3.14-1.125h.782q.406 1.58.406 2.171 0 .58-1.063 1.891-.645.926-1.171 1.64-.534.72-1.438 1.376a30 30 0 0 0-1.062 1.578q-.394.657-1.438 1.437-1.05 1.44-2.484 2.5l-11.016 10.219a31 31 0 0 1-2.812 2.484q-1.501 1.187-3.079 2.36-3.55 2.623-5.312 3.734-1.77 1.124-2.484 1.844-.722.716-.922 1.953-.188 1.246-.844 4.14a99.7 99.7 0 0 1-8.734 26.532q-6.223 12.655-16.313 22.75c-4.805 4.8-9.562 8.27-14.281 10.406q-7.08 3.218-12.969 3.219-6.422-.002-10.687-3.344-4.255-3.344-5.11-9.11-.86-5.765 2.813-12.968 2.623-4.987 6.547-9.375c2.625-2.93 5.379-5.484 8.265-7.672q9.825-7.735 19.328-13.11a2672 2672 0 0 0 20-11.39 389 389 0 0 1 4.578-2.562q1.577-.846 2.094-2.547v-.406q.657-3.8.656-8.97 0-5.186-1.109-10.155c-.742-3.32-1.984-6.098-3.734-8.329q-2.627-3.341-7.203-3.343-2.112 0-4.47.797-5.361 1.704-8.187 3.53-2.813 1.83-4.718 3.61c-1.262 1.18-2.899 2.422-4.907 3.735q-.392.127-.593.39c-.137.18-.422.266-.86.266q-.128 0-.39-.063a2 2 0 0 0-.516-.078q-2.11-.388-2.047-1.89.074-1.513 1.188-3.22 1.108-1.698 1.765-2.484c.438-.695.852-1.304 1.25-1.828q.593-.794 1.25-1.718a720 720 0 0 1 10.469-14.797c3.5-4.813 6.82-9.883 9.969-15.22q1.574-2.746 3.672-7.468 2.09-4.715 4-10.281a74 74 0 0 0 2.875-11.078c.656-3.664.68-6.985.078-9.953q-.533-2.624-1.516-3.672-.984-1.046-2.297-1.047-1.564.001-3.531 1.25a25 25 0 0 0-3.734 2.875 128 128 0 0 0-2.954 2.812q-5.501 5.519-10.546 13.516-5.052 7.986-9.375 17.297a271 271 0 0 0-8 19.062 352 352 0 0 0-6.547 19.079q-2.877 9.298-4.844 17.03a622 622 0 0 1-2.625 9.891 137 137 0 0 0-2.36 10.157l-2.484 16.64q-.392 1.701-.797 2.235-.391.527-1.828 1.172-2.485-.515-2.562-1.97-.064-1.438.078-3.921l2.484-24.64a602 602 0 0 1 3.735-32.829 879 879 0 0 0 4-32.578q.654-4.06 1.109-8.25.452-4.185.453-8.25-.001-2.108.125-4.797c.094-1.789.05-3.297-.125-4.515q-.392-2.232-.719-3.86a48 48 0 0 0-.843-3.484q-2.098.141-3.61 2.297a52 52 0 0 0-2.547 4c-3.68 5.5-6.828 11.64-9.453 18.422-2.617 6.773-4.402 13.515-5.36 20.234q-.531 3.549-.671 8.14-.129 4.58.937 7.72.78 1.968 1.829 2.437c.695.304 1.375.453 2.03.453.657 0 1.134.18 1.438.531q.468.516.063 2.485-1.706.39-3.266.39-2.096 0-3.344-.984-1.253-.984-2.296-2.953-1.705-3.797-1.704-8.313-.001-4.529.532-8.594a69 69 0 0 1 2.547-12.968 204 204 0 0 1 4.125-12.453l4.062-8.907q.657-1.452 2.156-4.328a55 55 0 0 1 3.61-5.906q2.107-3.012 4.39-5.11 2.296-2.092 4.657-2.093 2.232.001 3.937 2.234 2.216 2.752 2.938 6.547a37.7 37.7 0 0 1 .656 7.86q-.064 4.064-.063 7.609 0 3.27-.328 5.953a135 135 0 0 0-.578 5.844c-.18 3.93-.531 7.793-1.062 11.593a642 642 0 0 1-1.704 11.594l-1.953 16.906a60 60 0 0 1-.53 2.954q-.268 1.253-.267 2.812.92-1.17 1.313-2.875.387-1.7.797-3.016l1.828-5.89q3.406-11.28 8.187-22.547 4.78-11.281 10.297-21.5 2.091-3.406 5.36-8.375a114 114 0 0 1 7.281-9.828q3.997-4.858 8.187-8.063 4.2-3.217 8.125-3.218 3.154 0 5.516 2.562 2.356 2.548 3.266 7.797.92 5.503-.188 11.656-1.113 6.16-3.469 12.453a120 120 0 0 1-5.312 12.125q-2.955 5.83-5.828 10.547-1.065 1.582-2.89 4.266a456 456 0 0 1-3.86 5.578 931 931 0 0 0-3.672 5.234q-1.642 2.362-2.172 3.407M402.7 513.588c1.926 0 3.891-.352 5.891-1.047 2.008-.7 3.672-1.356 4.984-1.969q7.466-3.798 12.97-9.5a70.6 70.6 0 0 0 9.702-12.656q4.2-6.939 7.47-14.281.655-1.44 1.64-4.203a136 136 0 0 0 1.968-5.97 98 98 0 0 0 1.641-5.952q.657-2.754.656-4.328l-30.015 17.171-11.532 8.391c-1.492 1.133-3.242 2.688-5.25 4.656q-3.016 2.953-4.843 5.313-5.252 6.81-5.969 12.312-.719 5.498 2.234 8.782 2.954 3.28 8.453 3.28m0 0"/><path fill="#fff" d="M485.13 428.916q-.002-6.546.782-14.14.78-7.607 2.094-15.079c.875-4.988 1.835-9.488 2.89-13.5a80 80 0 0 0 1.313-4.39q.655-2.436 1.703-4.204 1.043-1.764 2.75-1.765 1.575.002 1.969 1.187.387 1.173.062 2.813a18.5 18.5 0 0 1-.86 3.015q-.515 1.376-.656 1.891-1.05 3.938-2.421 10.688-1.377 6.75-2.625 14.75a227 227 0 0 0-1.891 15.859q-.657 7.862-.266 14.219.388 6.356 2.094 9.765 2.231-1.19 3.672-3.547a54 54 0 0 0 2.5-4.578 229 229 0 0 0 5.89-12.203 156 156 0 0 1 6.032-12.047q1.044-2.092 2.219-2.093.528 0 .859.453.328.456.328.984c0 .262-.352 1.09-1.047 2.484q-1.048 2.097-2.172 4.329-1.113 2.236-1.5 2.89a297 297 0 0 0-2.953 6.422 5051 5051 0 0 0-3.219 7.188q-1.565 3.544-3 6.046-.655 1.043-1.78 2.813-1.113 1.765-2.423 3.078-1.3 1.313-3 1.313c-1.75 0-3.133-.875-4.14-2.625-1-1.743-1.72-3.922-2.157-6.547a70 70 0 0 1-.859-8.125q-.187-4.202-.187-7.344m0 0"/><path fill="#fff" d="M507.93 425.775q0-2.747 1.312-6.812 1.312-4.06 3.672-8.063c1.57-2.664 3.383-4.875 5.438-6.625q3.074-2.625 6.484-2.625 3.14.002 5.11 1.844 1.967 1.83 2.359 3.734.387 1.909-1.313 1.907-1.314 0-2.687-1.5c-.918-1.008-1.985-1.516-3.203-1.516q-1.441.002-3.47 1.703-2.033 1.705-4.92 6.672c-.876 1.406-1.685 3.227-2.423 5.453q-1.111 3.328-1.11 6.61.247-.264.188-.188l.453-.469 1.063-1.562q1.044-1.577 2.422-4.063a467 467 0 0 1 2.812-5.047q1.436-2.56 2.61-4.328c.789-1.176 1.406-1.765 1.843-1.765q2.357.002 2.75 1.703.405 1.704.329 4.187-.064 2.486.468 4.985.78 3.532 2.422 5.172c1.094 1.093 2.336 1.64 3.735 1.64q3.67 0 8.125-4.453 1.826-1.7 2.609-2.812.796-1.123 2.11-2.563.918-1.312 2.359-1.312 1.434 0 1.234 2.421-.189 2.425-5.172 7.282l-3.922 3.14q-3.815 2.625-7.343 2.625-3.283 0-5.704-1.968a13.2 13.2 0 0 1-3.734-4.844q-1.312-2.888-1.312-5.64-.926.656-2.11 2.89a913 913 0 0 1-2.547 4.781q-1.377 2.55-2.812 4.453-1.44 1.891-2.875 1.89-3.674.001-4.469-1.702-.783-1.701-.781-5.235m0 0"/><path fill="#fff" d="M549.606 432.197q-2.503 0-3.218-3.015-.717-3.013-.203-7.532.528-4.53 1.906-9.047 1.372-4.53 3.078-7.53 1.715-3.015 3.156-3.016c1.477 0 2.176.68 2.094 2.03q-.13 2.036-1.313 5.376a153 153 0 0 0-2.359 7.328q-1.172 4.001-1.172 7.797l6.281-9.563c.258-.52.829-1.437 1.704-2.75a26.4 26.4 0 0 1 2.953-3.672c1.093-1.132 2.164-1.703 3.218-1.703q1.56.001 2.485 2.094l.781 7.344c0 .781.04 2.008.125 3.672q.14 2.485.594 5.047.467 2.55 1.515 4.39 1.046 1.828 2.875 1.828 1.97.001 4.125-2.36 2.17-2.355 4.204-5.437a270 270 0 0 1 3.671-5.437c1.094-1.57 1.942-2.36 2.547-2.36q1.968.002 1.844 1.516-.129 1.5-1.312 3.469a49 49 0 0 1-2.422 3.672 103 103 0 0 0-1.516 2.094 83 83 0 0 1-2.484 3.015 43 43 0 0 1-3.282 3.406q-1.705 1.565-3.265 1.97-1.315.39-2.5.39-3.018 0-4.781-2.219a16.6 16.6 0 0 1-2.688-4.86q-1.313-3.934-1.453-7.015-.129-3.077 0-5.234.141-2.17-.516-3.344-1.563 1.049-3.343 4.187a279 279 0 0 0-3.672 6.75q-1.893 3.611-3.797 6.172-1.892 2.548-3.86 2.547m0 0"/><path fill="#fff" d="M585.25 487.369q2.625 0 5.312-2.625 2.686-2.612 4-4.844 4.575-7.735 5.828-16.39a554 554 0 0 0 2.157-16.641l.53-7.594q-.795.263-2.437 2.032a54 54 0 0 0-3.14 3.734c-1 1.312-1.68 2.226-2.031 2.75-.961 1.219-2.165 2.851-3.61 4.906a193 193 0 0 0-4.25 6.36c-1.398 2.187-2.441 4.109-3.14 5.765q-.388 1.06-1.438 3.672-1.062 2.624-1.906 5.828c-.57 2.145-.922 4.203-1.047 6.172q-.201 2.952.922 4.906 1.111 1.97 4.25 1.969m-1.438-59.5c0-2.094.633-4.582 1.89-7.469q1.906-4.325 5.048-8.39 3.152-4.06 6.75-6.75 3.608-2.687 7.14-2.688 3.67 0 5.172 2.625 1.512 2.626-.187 5.235-1.565-.124-2.094-1.172-.533-1.045-1.062-2.094c-.344-.695-.997-1.047-1.954-1.047q-2.877.001-5.89 2.75-3.018 2.754-5.578 6.75-2.55 4.001-4.125 7.938c-1.055 2.617-1.578 4.75-1.578 6.406q2.357-.655 4.187-2.688a98 98 0 0 1 3.156-3.343q1.313-1.436 2.953-3.657 1.641-2.232 2.813-3.937.655-1.043 1.703-2.625 1.043-1.577 2.625-1.578 1.434.001 2.219 1.718.796 1.706 1.047 4.266.264 2.549.265 5.11v4.25q1.046-.264 3.203-1.97a272 272 0 0 0 4.797-3.859q2.624-2.17 5.172-3.812 2.56-1.64 4.266-1.64.779.001 1.047.859a2.15 2.15 0 0 1-.125 1.64q-.141.129-1.907 1.5a176 176 0 0 1-4.203 3.156 132 132 0 0 0-4.718 3.61q-2.285 1.828-3.47 3a12.6 12.6 0 0 1-2.234 1.578q-1.171.657-1.437 2.36a65 65 0 0 0-.39 6.937q-.001 3.936-.594 8.922-.581 4.981-1.625 10.156-1.05 5.168-2.438 9.75-1.378 4.592-2.937 7.75-3.8 7.464-7.938 10.547-4.126 3.077-7.531 3.078c-2.446 0-4.457-.899-6.031-2.688-1.57-1.793-2.36-4-2.36-6.625 0-2.793.18-5.195.531-7.203q.516-3.016 1.641-5.828c.742-1.875 1.719-4.039 2.938-6.484q3.936-8.002 8.843-14.563c3.282-4.367 6.93-8.687 10.953-12.968 1.133-1.22 1.633-3.243 1.5-6.079a190 190 0 0 1-.187-8.328q-1.05.392-2.953 3.203-1.911 2.813-4.125 4.782c-.875.875-2.121 2.039-3.735 3.484q-2.425 2.157-4.921 2.156-1.969.002-2.688-1.047-.716-1.043-.781-2.484-.061-1.452-.063-2.5m0 0"/><path fill="#fff" d="M632.688 439.54c-1.75 0-3.305-.566-4.656-1.702q-2.035-1.718-3.078-3.547-2.362-4.453-2.688-10.547-.329-6.092.719-11.078.263-1.435.719-3.469.468-2.027 1.375-3.61.92-1.576 2.234-1.577c2.008 0 2.992.68 2.953 2.03q-.065 2.033-1.11 6.298-1.047 4.268-1.046 10.937 0 1.968.515 4.735.528 2.753 1.641 4.843c.738 1.399 1.676 2.094 2.813 2.094q2.11 0 4.78-1.828a35.6 35.6 0 0 0 4.985-4.125q2.295-2.296 3.219-3.484.265-.265 1.437-1.766a96 96 0 0 1 2.813-3.406 39 39 0 0 1 3.219-3.344q1.576-1.436 2.484-1.437.92.002.922 1.562-.001.925-1.25 2.828a50 50 0 0 1-2.938 4 106 106 0 0 1-3.343 3.922q-1.641 1.828-2.438 2.625l-3.734 3.734a24.8 24.8 0 0 1-4.781 3.735q-2.614 1.577-5.766 1.578m-4.188-52.03q0-2.234 1.172-3.875 1.184-1.641 2.625-1.641 1.577 0 2.625 1.969c1.22 2.449 1.368 4.351.453 5.703q-1.375 2.032-3.343 2.031-1.314 0-2.422-1.047-1.111-1.043-1.11-3.14m0 0"/><path fill="#fff" d="M655.364 432.197q-2.503 0-3.218-3.015-.717-3.013-.203-7.532.528-4.53 1.906-9.047 1.372-4.53 3.078-7.53 1.715-3.015 3.156-3.016c1.477 0 2.176.68 2.094 2.03q-.13 2.036-1.313 5.376a153 153 0 0 0-2.359 7.328q-1.172 4.001-1.172 7.797l6.281-9.563c.258-.52.829-1.437 1.704-2.75a26.4 26.4 0 0 1 2.953-3.672c1.093-1.132 2.164-1.703 3.218-1.703q1.56.001 2.485 2.094l.781 7.344c0 .781.04 2.008.125 3.672q.14 2.485.594 5.047.467 2.55 1.515 4.39c.696 1.219 1.657 1.828 2.875 1.828q1.97.001 4.125-2.36 2.17-2.355 4.204-5.437a270 270 0 0 1 3.671-5.437c1.094-1.57 1.942-2.36 2.547-2.36q1.968.002 1.844 1.516-.129 1.5-1.312 3.469a49 49 0 0 1-2.422 3.672 103 103 0 0 0-1.516 2.094 83 83 0 0 1-2.484 3.015 43 43 0 0 1-3.282 3.406q-1.705 1.565-3.265 1.97-1.315.39-2.5.39-3.018 0-4.781-2.219a16.6 16.6 0 0 1-2.688-4.86q-1.313-3.934-1.453-7.015-.129-3.077 0-5.234.141-2.17-.516-3.344-1.564 1.049-3.343 4.187a279 279 0 0 0-3.672 6.75q-1.893 3.611-3.797 6.172-1.892 2.548-3.86 2.547m0 0"/><path fill="#fff" d="M697.555 435.994q1.966-.516 3.546-3.469 1.576-2.952 2.22-6.75.655-3.796.327-7c-.218-2.144-.898-3.613-2.03-4.406q-.395 1.44-1.438 4.125a84 84 0 0 0-2.032 5.906 33.5 33.5 0 0 0-1.312 6.282q-.329 3.08.719 5.312m-6.547-4.453q-.001-1.7.718-5.047c.477-2.227 1.157-4.629 2.032-7.203a69 69 0 0 1 2.953-7.344c1.094-2.312 2.27-4.21 3.531-5.703q1.906-2.233 3.875-2.234 1.312.002 1.828 1.187.529 1.172.266 1.969-.27.656-.985 1.312-.721.658-1.25 1.438.264.925 1.313 2.031 1.044 1.113 2.094 2.953 1.062 1.83 1.39 4.985.328 3.14-.734 8.25c-.961 4.543-2.484 7.949-4.578 10.218s-4.149 3.407-6.156 3.407q-2.502-.001-4.407-2.563c-1.261-1.695-1.89-4.25-1.89-7.656m0 0"/><g mask="url(#k)"><g fill="#fff" clip-path="url(#l)" transform="translate(178 127)"><path d="M41.446 89.577q3.233-1.452 6.078-.781c1.907.437 3.555 1.601 4.953 3.484q2.7 3.628 1.47 7.578-1.22 3.937-6.454 7.828l-12.984 9.656L13.524 89.14l12.172-9.047c3.149-2.343 6.05-3.523 8.719-3.546 2.664-.032 4.86 1.109 6.578 3.421q1.747 2.344 1.813 4.829.058 2.472-1.36 4.78m-23.11-.203 7.61 10.234 8.985-6.687q3.434-2.545 4.296-5.235.873-2.685-.984-5.187c-1.23-1.657-2.789-2.461-4.672-2.422q-2.811.065-6.25 2.61Zm27.282 15.89c2.531-1.875 4.117-3.722 4.766-5.547q.966-2.732-1.063-5.453c-2.625-3.531-6.492-3.398-11.594.39l-9.953 7.407 7.89 10.61Zm3.977-30.955 3.032-1.906 14.031 22.39-3.031 1.906Zm-1.515-5.86c-.633.399-1.297.516-1.985.36a2.52 2.52 0 0 1-1.609-1.14q-.527-.844-.281-1.891c.156-.696.555-1.243 1.187-1.641.618-.383 1.266-.504 1.953-.36.688.149 1.211.5 1.563 1.063.387.625.5 1.29.344 1.984a2.53 2.53 0 0 1-1.172 1.625m35.626 16.836q-3.376 1.814-6.906 1.718a12.7 12.7 0 0 1-6.516-1.968q-2.98-1.873-4.796-5.282c-1.22-2.27-1.79-4.582-1.72-6.937a12.4 12.4 0 0 1 2.016-6.469c1.262-1.969 3.016-3.554 5.266-4.765 2.238-1.188 4.524-1.758 6.86-1.72q3.514.067 6.484 1.954c1.976 1.262 3.578 3.027 4.797 5.297q1.811 3.408 1.718 6.922a12.5 12.5 0 0 1-1.968 6.5q-1.876 2.969-5.235 4.75m-1.5-2.782q2.485-1.31 3.844-3.5 1.37-2.187 1.36-4.859c0-1.781-.477-3.555-1.422-5.328q-1.425-2.656-3.641-4.156-2.204-1.499-4.781-1.578-2.579-.078-5.063 1.234-2.5 1.346-3.86 3.531-1.357 2.174-1.374 4.875-.029 2.69 1.39 5.344c.95 1.773 2.165 3.152 3.657 4.14 1.5.981 3.101 1.5 4.812 1.563q2.577.082 5.078-1.266m26.397-49.652 14.125 34.5-3.14 1.297-1.985-4.828q-.485 3.066-2.406 5.375-1.91 2.298-4.969 3.547-3.44 1.408-6.875.969-3.423-.45-6.172-2.64-2.732-2.186-4.234-5.813-1.467-3.61-1.047-7.094.423-3.498 2.563-6.188 2.138-2.701 5.578-4.109 2.981-1.216 5.875-.969 2.905.25 5.406 1.985l-6.016-14.688Zm.735 36.844q2.543-1.03 4.109-3.062 1.576-2.047 1.875-4.72.294-2.668-.86-5.468-1.126-2.778-3.218-4.484c-1.387-1.133-2.93-1.813-4.625-2.031q-2.55-.342-5.094.687-2.626 1.08-4.203 3.11c-1.055 1.355-1.672 2.921-1.86 4.703-.195 1.78.079 3.601.829 5.453q1.154 2.8 3.234 4.5 2.075 1.705 4.625 2.047 2.562.344 5.188-.735M149.11 46.55l-21.202 6.298q1.48 3.878 4.937 5.5c2.313 1.074 4.867 1.195 7.672.36q2.341-.686 4.062-2.126a9.9 9.9 0 0 0 2.688-3.5l2.594 1.64q-1.094 2.532-3.297 4.345-2.203 1.797-5.25 2.687-3.891 1.158-7.406.406-3.503-.764-6.063-3.203c-1.7-1.625-2.914-3.676-3.656-6.156-.727-2.469-.848-4.836-.36-7.11q.738-3.419 3.063-5.89 2.325-2.468 5.86-3.516 3.515-1.043 6.796-.234 3.28.797 5.735 3.234 2.448 2.438 3.562 6.188Zm-15.484-7.343c-2.437.719-4.258 2.106-5.453 4.156q-1.782 3.083-1.015 6.938l17.968-5.328q-1.439-3.656-4.625-5.266-3.173-1.606-6.875-.5m35.325 15.836q-3.844.769-7.203-.297a12.44 12.44 0 0 1-5.687-3.75q-2.332-2.684-3.094-6.5-.764-3.78.36-7.125a12.47 12.47 0 0 1 3.812-5.625c1.789-1.531 3.969-2.55 6.531-3.062q3.356-.67 6.25.109a9.96 9.96 0 0 1 4.922 2.984l-2.234 2.282q-1.69-1.64-3.86-2.22c-1.437-.382-2.93-.421-4.469-.108q-2.8.564-4.796 2.265-1.986 1.705-2.782 4.281-.785 2.58-.187 5.516.591 3.035 2.297 5.063a9.1 9.1 0 0 0 4.218 2.843q2.497.813 5.297.25 2.312-.467 4.094-1.797c1.188-.894 2.086-2.07 2.703-3.53l2.953 1.265a10.1 10.1 0 0 1-3.422 4.656q-2.391 1.83-5.703 2.5m26.186-3.92c-2.53.274-4.875-.062-7.03-1a12.7 12.7 0 0 1-5.313-4.265q-2.064-2.874-2.469-6.72c-.273-2.562.066-4.913 1.016-7.062q1.436-3.234 4.296-5.25 2.874-2.027 6.672-2.437c2.532-.27 4.868.058 7.016.984q3.232 1.378 5.281 4.25 2.045 2.859 2.453 6.703.406 3.844-1 7.078a12.5 12.5 0 0 1-4.265 5.266q-2.86 2.05-6.657 2.453m-.343-3.14q2.794-.296 4.89-1.797 2.092-1.514 3.094-4 .997-2.485.672-5.485-.315-2.982-1.813-5.203-1.488-2.233-3.843-3.265-2.361-1.044-5.157-.75-2.813.3-4.906 1.812-2.078 1.502-3.11 4-1.019 2.485-.702 5.469.327 3.002 1.843 5.219 1.514 2.221 3.86 3.265c1.57.688 3.297.934 5.172.735m43.135-36.101.125 37.28h-3.406l-.016-5.218c-1.074 1.781-2.492 3.149-4.25 4.094q-2.626 1.405-5.938 1.422-3.721 0-6.734-1.688-3.018-1.7-4.734-4.765-1.723-3.06-1.735-6.985-.017-3.903 1.688-6.969 1.701-3.076 4.703-4.765 2.999-1.701 6.719-1.703 3.216-.011 5.812 1.312 2.591 1.314 4.25 3.86l-.047-15.875ZM224.74 46.303q2.747-.011 4.985-1.296 2.233-1.294 3.5-3.672 1.277-2.374 1.265-5.39-.017-3-1.312-5.36c-.856-1.57-2.028-2.782-3.516-3.625q-2.237-1.278-4.984-1.266-2.83.001-5.063 1.297-2.238 1.283-3.515 3.656-1.267 2.377-1.25 5.375.012 3.019 1.297 5.375 1.294 2.363 3.53 3.64 2.234 1.267 5.063 1.266m23.801-22.843 3.578.25-1.86 26.36-3.577-.25Zm2.235-5.625c-.743-.051-1.344-.344-1.813-.875a2.5 2.5 0 0 1-.64-1.86q.075-.998.89-1.703.81-.701 1.922-.625c.726.043 1.328.328 1.797.86q.702.785.64 1.78-.081 1.096-.89 1.798-.816.69-1.906.625m21.279-.202q-2.296-.264-3.61.844c-.874.742-1.413 1.93-1.609 3.562l-.36 3.094 8.079.953-.36 2.985-7.984-.938-2.75 23.25-3.531-.422 2.75-23.25-4.687-.562.359-2.985 4.687.563.375-3.25q.422-3.592 2.735-5.438 2.325-1.857 6.11-1.406 1.482.175 2.843.766 1.358.579 2.219 1.5l-1.532 2.5c-.93-.989-2.171-1.578-3.734-1.766m7.659 9.347 3.53.593-4.343 26.062-3.531-.593Zm2.75-5.407q-1.097-.17-1.735-1.031a2.44 2.44 0 0 1-.437-1.922q.152-.983 1.03-1.61.875-.622 1.97-.453a2.58 2.58 0 0 1 1.703 1.047q.639.844.469 1.828-.189 1.096-1.063 1.72-.86.608-1.937.421m15.701 36.293q-3.814-.892-6.438-3.266a12.46 12.46 0 0 1-3.625-5.766q-1-3.404-.11-7.187.875-3.75 3.282-6.328a12.3 12.3 0 0 1 5.797-3.547q3.405-.968 7.219-.078 3.327.784 5.64 2.687a9.95 9.95 0 0 1 3.25 4.75l-3 1.156q-.843-2.202-2.578-3.609-1.72-1.404-4.015-1.953-2.783-.656-5.297.078-2.52.719-4.313 2.734-1.781 2.004-2.468 4.922-.705 3 .015 5.578a9.05 9.05 0 0 0 2.64 4.329c1.29 1.18 2.864 1.984 4.72 2.421q2.296.545 4.468.063 2.17-.485 3.907-2.094l2.171 2.375a10.06 10.06 0 0 1-5.03 2.813q-2.943.685-6.235-.078m32.477-18.696q4.905 1.626 6.703 4.953 1.811 3.328.219 8.14l-5.141 15.547-3.25-1.078 1.297-3.922c-1.2 1.063-2.656 1.71-4.375 1.953q-2.579.356-5.625-.64-4.207-1.393-6.016-4.204-1.815-2.824-.719-6.125 1.046-3.187 4-4.375 2.966-1.2 8.016.47l7.969 2.624.5-1.515q1.077-3.235-.172-5.532-1.254-2.295-4.734-3.453a14 14 0 0 0-4.829-.734q-2.455.064-4.484.937l-.687-3.031q2.42-.998 5.39-1 2.983 0 5.938.984m-8.766 22.453q2.86.936 5.344.296 2.485-.627 4.312-2.765l1.344-4.094-7.86-2.594q-6.438-2.138-7.921 2.328-.722 2.205.531 4.016 1.249 1.81 4.25 2.813m28.07 13.721q-3.61-1.565-5.766-4.36a12.44 12.44 0 0 1-2.531-6.328q-.375-3.543 1.172-7.094 1.53-3.544 4.359-5.64a12.4 12.4 0 0 1 6.328-2.453q3.516-.34 7.125 1.218 3.14 1.36 5.078 3.657a10 10 0 0 1 2.328 5.234l-3.156.625q-.422-2.326-1.875-4.031c-.969-1.133-2.172-2.016-3.61-2.64q-2.625-1.14-5.234-.876-2.613.269-4.734 1.938c-1.406 1.105-2.508 2.574-3.297 4.406q-1.235 2.83-1 5.484a8.96 8.96 0 0 0 1.844 4.719q1.594 2.092 4.219 3.234 2.155.936 4.375.86c1.488-.055 2.894-.5 4.218-1.344l1.72 2.703a10.06 10.06 0 0 1-5.47 1.89q-3 .14-6.093-1.202m26.78-16.819 3.187 1.64-12.062 23.5-3.188-1.64Zm4.265-4.297q-.984-.514-1.312-1.531a2.45 2.45 0 0 1 .156-1.953q.45-.89 1.469-1.22a2.5 2.5 0 0 1 2.015.173q.967.504 1.313 1.5.34 1.001-.11 1.89-.515.985-1.546 1.313-1.019.33-1.985-.172m3.734 39.223c-2.18-1.323-3.844-3.01-5-5.062a12.6 12.6 0 0 1-1.64-6.593q.091-3.528 2.093-6.844 1.998-3.292 5.078-5.016c2.063-1.144 4.258-1.675 6.594-1.593q3.514.128 6.781 2.109 3.265 1.968 5 5.016c1.156 2.03 1.696 4.226 1.625 6.578q-.094 3.514-2.094 6.812-2.002 3.31-5.078 5.031a12.36 12.36 0 0 1-6.578 1.625q-3.516-.093-6.781-2.062m1.625-2.702c1.602.969 3.266 1.472 4.984 1.515q2.58.06 4.875-1.328 2.297-1.376 3.86-3.953 1.545-2.564 1.703-5.234.153-2.672-1.094-4.922-1.254-2.264-3.656-3.719c-1.617-.976-3.281-1.484-5-1.515q-2.566-.062-4.89 1.296-2.331 1.361-3.876 3.922-1.564 2.58-1.687 5.282-.128 2.688 1.11 4.937 1.246 2.249 3.67 3.719m20.578-27.125 4.078 2.469-10.172 1.109-3-1.828Zm20.68 26.529q3.968 2.988 4.578 7.078c.414 2.718-.484 5.539-2.703 8.468l-9.219 12.25-2.843-2.156 9-11.953q2.483-3.298 2.125-6.25-.345-2.953-3.391-5.25-3.408-2.56-6.922-2.031-3.504.517-6.187 4.094l-8.344 11.062-2.86-2.156 15.907-21.11 2.734 2.063-2.937 3.906q2.608-1.06 5.468-.562c1.914.324 3.782 1.172 5.594 2.547m0 0"/></g></g><g mask="url(#m)"><g fill="#fff" clip-path="url(#n)" transform="translate(162 590)"><path d="m30.57 56.478 2.515-13.625a32 32 0 0 1-2.047-1.938l-6.578-6.781-8.015 7.765-2.578-2.656 25.25-24.469 9.156 9.438q4.686 4.845 5.031 9.812.356 4.968-3.687 8.891-2.955 2.873-6.454 3.344-3.486.48-7.078-1.422l-2.672 14.562Zm2.656-17.829q3.639 3.762 7.219 4.125 3.576.375 6.578-2.53c2.039-1.981 2.969-4.157 2.781-6.532q-.269-3.575-3.906-7.344l-6.5-6.703-12.672 12.281Zm32.863 32.185L48.995 56.818q-2.38 3.376-1.781 7.156.608 3.781 4 6.547c1.258 1.04 2.61 1.77 4.047 2.188q2.156.623 4.406.25l.094 3.078q-2.721.497-5.453-.313c-1.813-.543-3.54-1.484-5.172-2.828q-3.16-2.577-4.485-5.906-1.312-3.33-.75-6.812.576-3.48 3.032-6.47 2.45-2.983 5.687-4.296 3.246-1.312 6.61-.766 3.357.534 6.187 2.86 2.843 2.33 4.016 5.5 1.17 3.175.53 6.562-.642 3.404-3.124 6.438Zm-2.61-16.969q-2.939-2.402-6.484-2.156-3.549.252-6.312 3.047L65.167 66.63q2.216-3.25 1.766-6.782-.456-3.527-3.454-5.984m37.367 22.919L88.237 96.252q-3.657 5.653-8.187 6.578-4.517.937-10.094-2.672-3.064-1.986-5.25-4.687-2.176-2.69-2.844-5.422l2.984-1.282q.668 2.466 2.438 4.75a17.3 17.3 0 0 0 4.312 3.938q4.218 2.731 7.47 2.047 3.263-.675 5.937-4.813l1.828-2.812a10.6 10.6 0 0 1-5.719.844c-1.98-.243-3.883-.954-5.703-2.141q-3.128-2.016-4.797-5.047a12.06 12.06 0 0 1-1.516-6.422c.094-2.281.813-4.46 2.157-6.547q2.027-3.107 5.062-4.609c2.031-1 4.18-1.398 6.453-1.203q3.404.282 6.563 2.328 2.812 1.83 4.36 4.437a10.9 10.9 0 0 1 1.546 5.657l2.75-4.25ZM77.41 88.111c1.601 1.031 3.27 1.617 5 1.766q2.606.233 4.89-.922 2.28-1.16 3.813-3.531 1.53-2.361 1.64-4.89.107-2.531-1.14-4.798-1.237-2.264-3.687-3.86-2.39-1.558-4.97-1.78a8.8 8.8 0 0 0-4.859.921q-2.284 1.161-3.812 3.516-1.534 2.38-1.656 4.922a8.83 8.83 0 0 0 1.125 4.812q1.265 2.28 3.656 3.844m31.633-6.991 3.157 1.687-12.485 23.28-3.156-1.687Zm4.344-4.25c-.648-.345-1.078-.852-1.297-1.532a2.44 2.44 0 0 1 .188-1.953q.468-.872 1.5-1.188a2.54 2.54 0 0 1 2 .203q.967.535 1.297 1.532.327 1.002-.141 1.875-.532.985-1.563 1.297-1.019.298-1.984-.235m2.539 37.464q-2.941-1.33-5.219-3.391-2.283-2.063-3.219-4.031l2.61-1.907q.997 1.894 2.937 3.688a16.6 16.6 0 0 0 4.407 2.906q3.292 1.484 5.343 1.172 2.047-.314 2.89-2.187c.407-.875.43-1.692.079-2.454q-.516-1.154-1.672-2.156-1.16-.996-3.187-2.344-2.674-1.874-4.203-3.25a7.5 7.5 0 0 1-2.157-3.328q-.627-1.951.469-4.39 1.373-3.013 4.75-3.782 3.387-.778 7.875 1.25a19.8 19.8 0 0 1 4.39 2.75c1.364 1.118 2.395 2.235 3.094 3.36l-2.578 1.969q-2.049-3.422-6.172-5.297c-2.062-.938-3.789-1.282-5.171-1.032-1.387.25-2.352.977-2.891 2.172q-.628 1.362-.125 2.594c.344.824.898 1.57 1.672 2.234q1.154.987 3.297 2.454 2.635 1.862 4.125 3.203 1.499 1.33 2.125 3.218.623 1.892-.438 4.235c-.96 2.101-2.594 3.375-4.906 3.812q-3.457.655-8.125-1.468m31.083 10.319c-.836.344-1.774.492-2.813.453a10.1 10.1 0 0 1-3.047-.61c-2.336-.843-3.906-2.124-4.718-3.843q-1.206-2.559.062-6.016l5.453-15.015-4.422-1.61 1.032-2.828 4.422 1.61 1.984-5.438 3.36 1.219-1.985 5.437 7.562 2.75-1.03 2.829-7.563-2.75-5.391 14.812q-.798 2.22-.11 3.797.687 1.56 2.766 2.312 1.031.375 2.11.391 1.09.03 2.015-.328Zm15.963-15.698c1.281-1.476 2.844-2.422 4.687-2.828 1.852-.414 3.954-.289 6.297.375l-.953 3.328-.797-.281q-4.02-1.139-6.984.688-2.971 1.816-4.25 6.234l-3.703 12.953-3.438-.984 7.282-25.407 3.28.938Zm22.37 27.505q-3.769-.739-6.453-3.016a12.73 12.73 0 0 1-3.828-5.61q-1.144-3.34-.407-7.156.717-3.78 3.016-6.453a12.46 12.46 0 0 1 5.64-3.781q3.341-1.107 7.11-.375 3.733.721 6.406 2.984a12.3 12.3 0 0 1 3.813 5.594c.75 2.219.882 4.59.406 7.11q-.737 3.814-3.016 6.5a12.53 12.53 0 0 1-5.625 3.796q-3.328 1.123-7.062.407m.594-3.11q2.763.529 5.187-.297c1.625-.562 2.992-1.535 4.11-2.922q1.685-2.092 2.265-5.062.563-2.935-.234-5.5-.785-2.56-2.735-4.234-1.939-1.687-4.703-2.22c-1.855-.35-3.594-.25-5.219.313q-2.439.832-4.14 2.922-1.704 2.08-2.266 5.016-.58 2.97.235 5.531.808 2.564 2.765 4.25 1.951 1.676 4.735 2.203m28.6 7.275q-3.204-.299-6.046-1.5-2.848-1.201-4.36-2.75l1.844-2.656q1.546 1.454 3.953 2.516a16.7 16.7 0 0 0 5.14 1.328q3.594.33 5.423-.64c1.226-.645 1.906-1.65 2.03-3.016.095-.97-.155-1.754-.75-2.36q-.876-.921-2.28-1.484-1.409-.563-3.766-1.172-3.142-.92-5.047-1.719a7.5 7.5 0 0 1-3.125-2.422q-1.236-1.624-.984-4.296.31-3.294 3.25-5.141 2.952-1.858 7.843-1.39 2.562.235 5.047 1.156c1.657.617 3 1.343 4.032 2.187l-1.813 2.688q-3.035-2.546-7.547-2.97-3.394-.326-5.234.72-1.846 1.031-2.016 2.984-.141 1.5.75 2.484.891.987 2.297 1.563 1.419.563 3.922 1.25 3.075.892 4.922 1.672a7.5 7.5 0 0 1 3.078 2.36q1.217 1.581.969 4.124-.317 3.458-3.375 5.203-3.065 1.763-8.157 1.281m55.477-9.299-19.563 1.094-3.672 9.625-3.875.219 14.063-36 3.672-.22 18.03 34.204-3.905.219Zm-1.532-2.937-9.484-18.391-7.36 19.344Zm24.586-4.128-5.157 6.703 1.282 7.422-3.532.61-6.328-36.735 3.531-.61 4.297 24.907 13.078-16.875 4.36-.75-9.297 12.547 14.812 13.312-4.296.734Zm25.738-19.445q4.98-1.387 8.344.36 3.357 1.736 4.734 6.625l4.422 15.765-3.297.922-1.11-3.968c-.405 1.543-1.257 2.898-2.546 4.062-1.293 1.156-2.976 2.024-5.047 2.594-2.836.805-5.281.762-7.344-.125-2.054-.883-3.39-2.438-4.015-4.656q-.909-3.234.89-5.875 1.795-2.637 6.907-4.079l8.078-2.265-.438-1.563q-.925-3.28-3.25-4.484-2.315-1.201-5.843-.219a14.4 14.4 0 0 0-4.407 2.11q-2.003 1.424-3.203 3.28l-2.265-2.14q1.47-2.185 3.937-3.844a19 19 0 0 1 5.453-2.5m5.281 23.516q2.906-.808 4.61-2.719 1.716-1.919 2.015-4.718l-1.171-4.157-7.97 2.235q-6.533 1.827-5.25 6.375.622 2.221 2.673 3.031 2.06.814 5.093-.047m-4.453-34.266 4.594-1.296-6.14 8.187-3.376.953Zm34.1 27.5a20.4 20.4 0 0 1-6.094 1.344q-3.082.189-5.125-.531l.484-3.203q2.015.628 4.657.5a16.5 16.5 0 0 0 5.187-1.11q3.356-1.293 4.563-2.968 1.217-1.672.484-3.594-.518-1.358-1.703-1.797-1.19-.436-2.703-.297-1.517.13-3.907.61-3.22.596-5.28.718a7.63 7.63 0 0 1-3.876-.797q-1.827-.92-2.781-3.422-1.202-3.076.625-6.046 1.829-2.965 6.422-4.735a19.4 19.4 0 0 1 5.015-1.187c1.758-.188 3.286-.133 4.579.156l-.407 3.219q-3.862-.95-8.093.672-3.186 1.237-4.375 2.984-1.187 1.736-.485 3.578.55 1.394 1.781 1.89 1.232.505 2.75.376 1.512-.123 4.079-.625 3.152-.56 5.156-.688a7.2 7.2 0 0 1 3.797.75c1.187.586 2.086 1.672 2.703 3.266q1.231 3.235-.719 6.172-1.956 2.925-6.734 4.765m17.741-37.308q4.434-2.25 8.36-.985 3.937 1.252 6.437 6.172l6.906 13.688-3.187 1.61-6.75-13.36q-1.863-3.687-4.688-4.672-2.814-.997-6.203.719-3.814 1.923-4.89 5.312-1.062 3.375.953 7.36l6.25 12.375-3.188 1.625-16.812-33.266 3.187-1.625 6.985 13.812q.252-2.716 1.968-5 1.718-2.278 4.672-3.765m17.393-9.457 3.047-1.875 13.813 22.531-3.047 1.875Zm-1.453-5.875q-.952.58-1.984.328a2.5 2.5 0 0 1-1.594-1.156c-.344-.57-.43-1.204-.265-1.891q.236-1.03 1.187-1.61c.625-.382 1.281-.5 1.969-.343q1.02.22 1.547 1.062.58.957.328 2c-.164.688-.563 1.227-1.188 1.61m36.839 14.384q-3.189 2.297-6.688 2.703a12.3 12.3 0 0 1-6.718-1.078q-3.234-1.482-5.5-4.64-2.25-3.125-2.594-6.641a12.43 12.43 0 0 1 1.156-6.704q1.5-3.187 4.688-5.484 2.781-1.98 5.734-2.469a10 10 0 0 1 5.719.688l-1.11 3.031q-2.191-.826-4.406-.453-2.204.363-4.125 1.734-2.324 1.675-3.437 4.047-1.108 2.377-.766 5.047c.219 1.774.914 3.469 2.078 5.094q1.798 2.519 4.188 3.672a8.97 8.97 0 0 0 5.015.86q2.606-.293 4.938-1.97 1.919-1.373 2.984-3.312 1.077-1.95 1-4.313l3.219-.062q.233 2.97-1.203 5.64-1.424 2.66-4.172 4.61m23.373-18.759q-2.86 2.548-6.312 3.28a12.64 12.64 0 0 1-6.797-.39q-3.34-1.136-5.906-4.031-2.56-2.889-3.282-6.344c-.476-2.312-.328-4.57.454-6.781q1.158-3.31 4.015-5.86 2.86-2.514 6.281-3.265c2.282-.5 4.532-.367 6.75.39 2.22.762 4.18 2.106 5.891 4.032q2.56 2.894 3.297 6.343a12.55 12.55 0 0 1-.406 6.782q-1.125 3.329-3.985 5.843m-2.093-2.36q2.108-1.858 2.921-4.297.827-2.45.188-5.047-.627-2.608-2.625-4.86-1.986-2.25-4.5-3.187-2.501-.949-5.031-.421-2.516.516-4.625 2.375c-1.407 1.25-2.383 2.695-2.938 4.328q-.825 2.437-.203 5.062.61 2.625 2.594 4.875 2.003 2.251 4.515 3.172 2.531.924 5.063.406c1.687-.351 3.234-1.156 4.64-2.406m23.202-18.213a20.3 20.3 0 0 1-4.89 3.875q-2.673 1.519-4.829 1.765l-.969-3.078c1.399-.226 2.864-.765 4.407-1.61a17 17 0 0 0 4.171-3.265q2.45-2.638 2.797-4.672.357-2.045-1.156-3.453-1.063-.998-2.328-.86-1.252.143-2.563.923-1.299.784-3.218 2.265c-1.758 1.293-3.235 2.278-4.422 2.954a7.5 7.5 0 0 1-3.844 1q-2.044-.029-4-1.844-2.42-2.262-2.094-5.719.33-3.467 3.688-7.062a19.4 19.4 0 0 1 3.984-3.282c1.5-.937 2.899-1.562 4.188-1.875l1.047 3.078q-3.89.845-6.97 4.172-2.325 2.486-2.624 4.578-.295 2.097 1.14 3.438c.73.68 1.54.984 2.422.922q1.33-.105 2.64-.89 1.316-.78 3.392-2.345 2.576-1.905 4.328-2.89a7.5 7.5 0 0 1 3.734-.985q1.999.002 3.875 1.75c1.688 1.575 2.367 3.528 2.047 5.86q-.471 3.502-3.953 7.25m0 0"/></g></g></svg>